<svg width="520" height="320" viewBox="0 0 520 320" fill="none" xmlns="http://www.w3.org/2000/svg">
<rect width="520" height="320" rx="20" fill="#0b1727"/>
<rect x="36" y="80" width="110" height="70" rx="16" fill="#1e293b" stroke="#38bdf8" stroke-width="3"/>
<text x="56" y="122" fill="#e2e8f0" font-family="Inter" font-size="16" font-weight="700">Weather</text>
<text x="56" y="144" fill="#94a3b8" font-family="Inter" font-size="13">API &amp; данни</text>
<rect x="204" y="50" width="120" height="90" rx="16" fill="#1e293b" stroke="#22c55e" stroke-width="3"/>
<text x="224" y="96" fill="#e2e8f0" font-family="Inter" font-size="16" font-weight="700">Clearsky</text>
<text x="224" y="118" fill="#94a3b8" font-family="Inter" font-size="13">POA радиация</text>
<rect x="204" y="180" width="120" height="90" rx="16" fill="#1e293b" stroke="#a855f7" stroke-width="3"/>
<text x="224" y="226" fill="#e2e8f0" font-family="Inter" font-size="16" font-weight="700">ML модел</text>
<text x="224" y="248" fill="#c084fc" font-family="Inter" font-size="13">25 признака</text>
<rect x="372" y="120" width="120" height="90" rx="16" fill="#1e293b" stroke="#f97316" stroke-width="3"/>
<text x="392" y="164" fill="#e2e8f0" font-family="Inter" font-size="16" font-weight="700">/predict</text>
<text x="392" y="186" fill="#fb923c" font-family="Inter" font-size="13">REST &amp; UI</text>
<path d="M146 116H196" stroke="#38bdf8" stroke-width="8" stroke-linecap="round"/>
<path d="M324 95L368 131" stroke="#22c55e" stroke-width="8" stroke-linecap="round"/>
<path d="M324 226L368 190" stroke="#a855f7" stroke-width="8" stroke-linecap="round"/>
<path d="M264 140V190" stroke="#38bdf8" stroke-width="8" stroke-dasharray="8 12" stroke-linecap="round"/>
<circle cx="264" cy="164" r="8" fill="#38bdf8"/>
<circle cx="196" cy="116" r="8" fill="#38bdf8"/>
<circle cx="368" cy="190" r="8" fill="#a855f7"/>
<circle cx="368" cy="131" r="8" fill="#22c55e"/>
</svg>
