<svg width="520" height="320" viewBox="0 0 520 320" fill="none" xmlns="http://www.w3.org/2000/svg">
<rect width="520" height="320" rx="20" fill="#0b1727"/>
<path d="M80 260C140 220 190 210 240 214C300 220 320 184 364 166C394 154 428 150 460 158" stroke="#38bdf8" stroke-width="10" stroke-linecap="round" stroke-dasharray="12 14"/>
<circle cx="116" cy="234" r="16" fill="#38bdf8"/>
<circle cx="192" cy="216" r="16" fill="#22c55e"/>
<circle cx="264" cy="208" r="16" fill="#fbbf24"/>
<circle cx="338" cy="178" r="16" fill="#f97316"/>
<circle cx="418" cy="164" r="16" fill="#a855f7"/>
<rect x="90" y="86" width="130" height="46" rx="12" fill="#1e293b" stroke="#38bdf8" stroke-width="3"/>
<text x="108" y="114" fill="#e2e8f0" font-family="Inter" font-size="15" font-weight="700">v1.1</text>
<text x="108" y="132" fill="#94a3b8" font-family="Inter" font-size="12">Интерполация</text>
<rect x="230" y="86" width="130" height="46" rx="12" fill="#1e293b" stroke="#22c55e" stroke-width="3"/>
<text x="248" y="114" fill="#e2e8f0" font-family="Inter" font-size="15" font-weight="700">v1.2</text>
<text x="248" y="132" fill="#94a3b8" font-family="Inter" font-size="12">Дрифт мониторинг</text>
<rect x="370" y="86" width="130" height="46" rx="12" fill="#1e293b" stroke="#fbbf24" stroke-width="3"/>
<text x="388" y="114" fill="#0f172a" font-family="Inter" font-size="15" font-weight="700">v2.0</text>
<text x="388" y="132" fill="#0f172a" font-family="Inter" font-size="12">SCADA портфолио</text>
</svg>
