<svg width="520" height="320" viewBox="0 0 520 320" fill="none" xmlns="http://www.w3.org/2000/svg">
<rect width="520" height="320" rx="20" fill="#0b1727"/>
<rect x="46" y="52" width="428" height="42" rx="12" fill="#1e293b" stroke="#38bdf8" stroke-width="3"/>
<rect x="64" y="64" width="110" height="18" rx="9" fill="#0ea5e9" opacity="0.9"/>
<rect x="186" y="64" width="120" height="18" rx="9" fill="#22c55e" opacity="0.8"/>
<rect x="316" y="64" width="100" height="18" rx="9" fill="#eab308" opacity="0.9"/>
<rect x="46" y="108" width="240" height="160" rx="14" fill="#0f172a" stroke="#334155" stroke-width="3"/>
<rect x="62" y="126" width="208" height="14" rx="7" fill="#1e293b"/>
<rect x="62" y="148" width="208" height="14" rx="7" fill="#1e293b" opacity="0.85"/>
<rect x="62" y="170" width="208" height="14" rx="7" fill="#1e293b" opacity="0.75"/>
<rect x="62" y="192" width="208" height="14" rx="7" fill="#1e293b" opacity="0.65"/>
<rect x="62" y="214" width="208" height="14" rx="7" fill="#1e293b" opacity="0.55"/>
<rect x="304" y="108" width="170" height="42" rx="14" fill="#1e293b" stroke="#38bdf8" stroke-width="3"/>
<rect x="304" y="160" width="170" height="42" rx="14" fill="#1e293b" stroke="#22c55e" stroke-width="3"/>
<rect x="304" y="212" width="170" height="42" rx="14" fill="#1e293b" stroke="#fbbf24" stroke-width="3"/>
<circle cx="330" cy="129" r="10" fill="#38bdf8"/>
<circle cx="330" cy="181" r="10" fill="#22c55e"/>
<circle cx="330" cy="233" r="10" fill="#fbbf24"/>
<rect x="352" y="120" width="104" height="18" rx="9" fill="#0ea5e9" opacity="0.9"/>
<rect x="352" y="172" width="104" height="18" rx="9" fill="#22c55e" opacity="0.9"/>
<rect x="352" y="224" width="104" height="18" rx="9" fill="#fbbf24" opacity="0.9"/>
</svg>
